<?xml version="1.0" encoding="utf-8"?>
<!-- Generator: Adobe Illustrator 22.1.0, SVG Export Plug-In . SVG Version: 6.00 Build 0)  -->
<svg version="1.1" id="Layer_1" xmlns="http://www.w3.org/2000/svg" xmlns:xlink="http://www.w3.org/1999/xlink" x="0px" y="0px"
	 viewBox="0 0 250.5 61" style="enable-background:new 0 0 250.5 61;" xml:space="preserve">
<style type="text/css">
	.st0{fill:#FFFFFF;}
</style>
<title>teradici-logo</title>
<g id="Teradici_logo">
	<path class="st0" d="M25.8,25.6h-10v16.7c0,1.2,0,2.3,0.1,3.5c0.1,0.7,0.4,1.3,0.9,1.8c0.7,0.5,1.5,0.8,2.4,0.7l6.2-0.2l0.5,8.7
		c-2.7,0.7-5.5,1.1-8.3,1.2c-4.9,0-8.2-1.1-10-3.3c-1.8-2.2-2.7-6.3-2.7-12.2V25.6H0v-9.3h4.8V5h10.9v11.3h10V25.6z M166.2,0v57
		h-10.8v-1.7c-3.8,1.8-7.1,2.7-9.9,2.7c-5.9,0-10-1.7-12.4-5.1c-2.3-3.4-3.5-8.8-3.5-16.3c0-7.4,1.4-12.8,4.2-16.2s7-5.1,12.7-5.1
		c2.4,0.1,4.9,0.4,7.3,0.8l1.5,0.3V0H166.2z M154.2,47.3l1.1-0.2V25.6c-2.6-0.5-5.3-0.8-8-0.8c-4.4,0-6.6,3.9-6.6,11.7
		c0,4.2,0.5,7.3,1.5,9c0.9,1.8,2.8,2.8,4.9,2.7C149.4,48.2,151.8,47.9,154.2,47.3z M173,11.1V0H184v11.1H173z M173,57V16.3H184V57
		H173z M205.7,15.3c3.6,0.1,7.2,0.5,10.8,1.3l2.2,0.5l-0.3,8.6c-4.3-0.4-7.5-0.7-9.5-0.7c-3.7,0-6.2,0.8-7.5,2.4
		c-1.2,1.6-1.8,4.6-1.8,9.1c0,4.5,0.6,7.5,1.8,9.1c1.2,1.6,3.7,2.5,7.5,2.5l9.5-0.7l0.3,8.7c-4.4,1-8.8,1.5-13.3,1.7
		c-6,0-10.4-1.7-13-5.1c-2.6-3.4-3.9-8.8-4-16.3c0-7.5,1.4-12.9,4.1-16.2C195.2,17,199.6,15.3,205.7,15.3z M223.4,11.1V0h10.9v11.1
		L223.4,11.1z M223.4,57V16.3h10.9V57H223.4z M60.1,47.8l-0.7,0.1c-4,0.3-8.5,0.5-13.5,0.5c-2.4,0-4.2-0.6-5.5-1.7
		c-1.3-1.1-1.9-2.9-2-5.4h21.7V21.6c-2.9-4.2-7.8-6.3-14.7-6.3c-12,0-18,7.3-18,21.9c0,7.3,1.4,12.6,4.2,15.9
		c2.8,3.3,7.2,4.9,13.4,4.9c5.1-0.1,10.2-0.7,15.2-1.9L60.1,47.8z M40,26.2c1.1-1.3,2.9-2,5.5-2c2.6,0,4.4,0.6,5.4,1.9
		c1,1.3,1.5,3.6,1.5,6.8H38.3C38.4,29.8,38.9,27.6,40,26.2L40,26.2z M76.5,29.7c4-2.1,8.4-3.3,13-3.4V15.3c-4.6,1-9,2.8-13,5.3v-4.3
		H65.7V57h10.9L76.5,29.7L76.5,29.7L76.5,29.7z M124.1,48.6c-0.4-0.9-0.6-1.8-0.6-2.7V29c0-4.8-1.2-8.2-3.5-10.4
		c-2.3-2.2-6.1-3.3-11.3-3.3c-4.9,0-9.8,0.7-14.5,1.8v8l13.6-0.6c1.3-0.1,2.6,0.2,3.7,0.9c0.8,0.6,1.1,1.8,1.1,3.5v2.5l-8.7,0.6
		c-4.8,0.3-8.4,1.4-10.8,3.2c-2.3,1.8-3.5,4.9-3.5,9.3c0,8.9,4.2,13.4,12.6,13.4c4.2,0,8.3-1,12-2.9c1.5,1.1,3.2,1.8,5,2.3
		c2.2,0.4,4.4,0.6,6.6,0.6l0.3-8.2C125.3,49.7,124.6,49.3,124.1,48.6L124.1,48.6z M112.5,47.8l-1.2,0.3c-2.2,0.6-4.5,0.9-6.8,1
		c-2.7,0-4-1.5-4-4.5c0-3,1.5-4.6,4.6-4.9l7.4-0.7L112.5,47.8z M238.4,51.1c0.2-0.5,0.6-1,1-1.4c0.4-0.4,0.9-0.7,1.5-0.9
		c1.1-0.5,2.4-0.5,3.5,0c0.5,0.2,1,0.5,1.4,0.9c0.4,0.4,0.8,0.9,1,1.4c0.2,0.6,0.4,1.2,0.4,1.8c0,0.6-0.1,1.2-0.4,1.8
		c-0.2,0.5-0.6,1-1,1.4c-0.4,0.4-0.9,0.7-1.5,1c-1.1,0.4-2.4,0.4-3.5,0c-0.5-0.2-1-0.5-1.5-0.9c-0.4-0.4-0.7-0.9-1-1.4
		c-0.2-0.6-0.4-1.2-0.4-1.8C238.1,52.3,238.2,51.7,238.4,51.1z M239.2,54.4c0.2,0.5,0.4,0.9,0.8,1.2c0.3,0.4,0.7,0.6,1.2,0.8
		c0.5,0.2,1,0.3,1.5,0.3c0.5,0,1-0.1,1.5-0.3c0.4-0.2,0.8-0.5,1.2-0.8c0.3-0.4,0.6-0.8,0.8-1.2c0.2-0.5,0.3-1,0.3-1.5
		c0-0.5-0.1-1-0.3-1.5c-0.4-0.9-1.1-1.6-2-2c-0.5-0.2-1-0.3-1.5-0.3c-0.5,0-1,0.1-1.5,0.3c-0.4,0.2-0.8,0.5-1.2,0.8
		c-0.3,0.3-0.6,0.8-0.8,1.2c-0.2,0.5-0.3,1-0.3,1.5C238.9,53.4,239,53.9,239.2,54.4L239.2,54.4z M242.9,50.3c0.5,0,1,0.1,1.4,0.4
		c0.3,0.3,0.5,0.7,0.4,1.1c0,0.4-0.1,0.8-0.4,1c-0.3,0.2-0.6,0.4-1,0.4l1.5,2.3H244l-1.4-2.3h-0.8v2.3h-0.8v-5.3L242.9,50.3z
		 M242.5,52.6h0.5c0.2,0,0.3,0,0.4-0.1c0.1-0.1,0.2-0.1,0.3-0.3c0.1-0.1,0.1-0.3,0.1-0.5c0-0.1,0-0.3-0.1-0.4
		c-0.1-0.1-0.2-0.2-0.3-0.2c-0.1-0.1-0.2-0.1-0.4-0.1c-0.1,0-0.3,0-0.4,0h-1.1v1.7L242.5,52.6z"/>
</g>
</svg>
